<svg version="1.2" xmlns="http://www.w3.org/2000/svg" viewBox="0 0 64 64" width="64" height="64">
	<title>icons8-accede-redondeado-derecho-64</title>
	<style>
		.s0 { fill: #ffc300;stroke: #ff5733;stroke-width: 3 } 
	</style>
	<path id="Path 0" class="s0" d="m26 9.8c-2.5 0.8-5.9 2.4-7.5 3.6-1.6 1.3-4 3.6-5.1 5.2-1.2 1.6-3 7.4-0.4 7.4 2.2 0 4.1-1.1 7.3-4.4 2.7-2.9 5.4-4.7 7.7-5.1 1.9-0.4 5.3-0.4 7.5 0q4 0.7 7.6 4.4c2.1 2.1 4 5.1 4.4 7.1 0.4 1.9 0.4 5.3 0 7.5q-0.7 4-4.4 7.6-3.6 3.7-7.6 4.4c-2.2 0.4-5.6 0.4-7.5 0-2.3-0.4-5-2.2-7.8-5.1-3.1-3.3-5-4.4-7.2-4.4-2.6 0-2.9 0.3-2.4 2.2 0.4 1.3 1.6 3.6 2.8 5.3 1.2 1.6 3.6 3.9 5.2 5.1 1.6 1.2 4.9 2.8 7.4 3.6 2.9 0.9 5.9 1.2 8.5 0.7 2.2-0.3 5.8-1.5 7.9-2.5 2.2-1.1 5.3-3.5 7-5.5 1.7-2 3.7-5.4 4.3-7.5 0.7-2.1 1.3-5.5 1.3-7.4 0-1.9-0.6-5.3-1.3-7.4-0.6-2.1-2.6-5.5-4.3-7.5-1.7-2-4.6-4.4-6.5-5.3-1.9-0.9-5.4-2.1-7.9-2.6-3.3-0.6-5.8-0.5-9 0.6zm-3.5 15.2c-0.3 0.6 0.1 1.7 0.7 2.5 1.2 1.4 0.4 1.6-6.8 1.5-6.1 0-8.4 0.4-9.3 1.5-0.8 1.1-0.8 1.9 0.2 3 0.9 1.2 3.1 1.6 9.2 1.5 7.1-0.1 7.9 0.1 6.8 1.5-0.7 0.8-1.1 2-0.8 2.5 0.3 0.5 1.1 1 1.8 1 0.6 0 3-1.8 5.2-4l4-4c-6.2-6.2-8.5-8-9.2-8-0.7 0-1.4 0.4-1.8 1zm0 0c-0.3 0.6 0.1 1.7 0.8 2.5 1.1 1.4 0.3 1.6-6.9 1.5-6.1 0-8.4 0.4-9.3 1.5-0.8 1.1-0.8 1.9 0.2 3 0.9 1.2 3.1 1.6 9.2 1.5 7.1-0.1 7.9 0.1 6.8 1.5-0.7 0.8-1.1 2-0.8 2.5 0.3 0.5 1.1 1 1.8 1 0.6 0 3-1.8 5.2-4l4-4c-6.2-6.2-8.5-8-9.2-8-0.7 0-1.4 0.4-1.8 1z"/>
</svg>