<svg version="1.2" xmlns="http://www.w3.org/2000/svg" viewBox="0 0 50 50" width="50" height="50"><style>.a{fill:#ffc300;stroke:#000;stroke-width:2}.b{fill:#ff5733;stroke:#000;stroke-width:2}.c{fill:none;stroke:#000}.d{fill:#ff5733}</style><path class="a" d="m8 4c0 0 27.1-0.2 33 0 5.9 0.2 5 6 5 6 0 0 0 26.5 0 31 0 4.5-5 5-5 5 0 0-25.2 0.1-32 0-5.9-1-5-6-5-6v-31c-0.9-5 4-5 4-5z"/><path class="b" d="m25.5 32.9c-4.7 0-8.5-3.5-8.5-7.9 0-4.4 3.8-8 8.5-8 4.7 0 8.5 3.6 8.5 8 0 4.4-3.8 7.9-8.5 7.9z"/><path class="c" d="m39 13c-1.7 0-3-1.3-3-3 0-1.7 1.3-3 3-3 1.7 0 3 1.3 3 3 0 1.7-1.3 3-3 3z"/><path class="d" d="m9 18h4l0.1 2.1h-1.2c0 0-2.4 16.2 8.1 17.9 9.9 0 10 0 10 0 0 0 11.3 0.6 8-18-1 0-1 0-1 0v-2h4c0 0 3.5 23.1-4 23-7.5-0.1-18.4 0.4-23.5 0.1-5.6-1-4.6-10.2-4.5-23.1z"/></svg>