<svg version="1.2" xmlns="http://www.w3.org/2000/svg" viewBox="0 0 349 612" width="349" height="612"><style>.a{fill:#ffc300;stroke:#000;stroke-width:2}.b{fill:none;stroke:#000}.c{fill:#fff;stroke:#000;stroke-width:2}.d{fill:#fffbef;stroke:#000;stroke-width:3}.e{fill:#ea3f25}.f{fill:#ea3f25;stroke:#000;stroke-width:3}.g{fill:#fecf5d;stroke:#000;stroke-width:3}.h{fill:none;stroke:#000;stroke-width:3}.i{fill:#fff;stroke:#000;stroke-width:3}.j{stroke:#fff;stroke-width:8}.k{fill:#c36800;stroke:#000;stroke-width:2}.l{fill:#fdcc80;stroke:#000}.m{opacity:.5;fill:#fff}.n{opacity:.3}.o{fill:#f7921e;stroke:#000}.p{opacity:.5}.q{fill:#ffc300;stroke:#000}.r{fill:#fff;stroke:#000}.s{fill:#eee894}.t{fill:#ffc300}.u{fill:#ff5733;stroke:#000}.v{fill:#fff}</style><path class="a" d="m195.7 538.2q0 0-0.1 1c-0.6 6.2-3.9 38.9-2.1 43-0.3 6.1 45.2 10.2 38.1 14.6 12.4 5.9-3.3 11.7-8.1 7.4-4.2-1.5-20-7-20-7 0 0 13 8.1 8.4 11.4-9.7 5.9-20.1-8.7-23.9-11.4-1.7-0.9-10.3 1.4-11.2-3-0.8-4.3 5.2-3.4 5.6-5 1.2-0.9 3.6-4.8 2.2-6-1.4-1.2-2.1-9 0-10 2.1-0.9 0-38 0-38l12.2 1"/><path class="b" d="m231.2 597l-12.3-2.7"/><path class="c" d="m200.2 530.2c0 0 1.2 10.9-2.2 11-3.5 0.2-6.7-4-6.7-4 0 0-1.1 4.5-3.3 4-2.3-0.4-4.7-2.1-4.5-4 0.2-1.8-1.2 5.5-5.6 5-4.3-0.4 0-10 0-10"/><path class="a" d="m144 537l11-1c0 0-1.9 37 0 38 1.9 1 1.3 8.8 0 10-1.3 1.2 0.9 5.1 2 6 0.4 1.6 5.8 0.6 5 5-0.8 4.4-8.5 2-10 3-3.5 2.6-12.8 17.3-21.5 11.4-4.2-3.3 7.5-11.4 7.5-11.4 0 0-14.2 5.4-18 7-4.3 4.2-18.4-1.5-7.2-7.5-6.5-4.3 34.5-8.5 34.2-14.5 1.6-4.1-1.3-36.9-1.9-43q-0.1-1-0.1-1"/><path class="b" d="m113.1 597.8l11.1-2.7"/><path class="c" d="m161 533c0 0 3.9 9.6 0 10-3.9 0.4-5.2-6.8-5-5 0.2 1.8-2 3.5-4 4-2 0.5-3-4-3-4 0 0-2.9 4.2-6 4-3.1-0.2-2-11-2-11"/><path class="d" d="m178 354c0 0-4 61.3 6 72 6 4.6 8.1 6.2 12 15.4 2.9 1.1 3.5 1.9 6 3.3 27.4 15.3 39.1 46.4 29.5 64.3-10.1 29.5-102.2 33.5-119.5 6-30.3-45.1 30.9-78.2 42-76 0.9-7 10.7-11.9 10.7-11.9l-3.7-67.1z"/><path class="e" d="m150.7 287l45.4-4.7c0 0-11.9 65.7-7.2 85.5-21.7 0.7-34.9-21.7-34.9-21.7l-5-25.1c0 0 9.1-30.6 1.7-34z"/><path class="f" d="m179 351c0 0-8.6 28.1-36 19-27.9-12.3 13.1-51.9 8.7-75.7"/><path class="f" d="m197 289c0 0-14.6 26.5 11 55 14.4 21.3-25.9 47.1-34 19.6"/><path class="g" d="m174 197l78 35c0 0 61.5-1.6 75 14 18.4 36.4-20 32-20 32 0 0-47.5-8.9-58-14-10.5-5.1-71 42-71 42 0 0-80.9-32.6-85.3-39.6-15.9 0.6-61.6 13.1-77.7 4.6-48.7-27.9 33-49 33-49l29-12z"/><path class="g" d="m22 258c0 0 53.6-9.8 70.5 7.9"/><path class="h" d="m312 267c0 0-40.1-11.7-67.7-2.9"/><path class="h" d="m181 246l-1 7"/><path class="h" d="m158 246l1 8"/><path class="h" d="m33.8 226.6c0 0 15.9-6.5 41-2.2"/><path class="f" d="m179 106c0 0 23.1-116.8 125-106 39.9 6.6 35.3 36.5 20 40-21.2 11.1-60.5 10.7-79 13-18.5 2.3-52.2 56.8-40 61 17.3 8.4 40.9-51.9 71-31 31.8 29.3-58.7 34-39 43 8.5-0.3 26.6 3.1 13.8 15.3-4 23.1-59.8 21.7-59.8 21.7z"/><path class="i" d="m325 169c-8.3-32.9-143.8-51.4-151 23-7.2 74.4 166.7 39.5 151-23z"/><path class="i" d="m85 83c82.9-53.6 160.9 102.3 61.7 151.7-93.7 17.3-125.3-125.6-61.7-151.7z"/><path class="j" d="m89.3 95.5c11.3-7.3 21.9 13.9 8.4 20.6-12.8 2.4-17.1-17.1-8.4-20.6z"/><path class="j" d="m288.4 168.8c11 7.7-4.7 25.5-15.9 15.5-7-10.9 9.4-22.2 15.9-15.5z"/><path class="c" d="m232 447c0 0 48.9-37.4 51-36 4 4.6-8.9 16.5-11 18.9 2.3-1 15.4-8.1 20-9.9 1.9 2.9-5.1 19.2-22 20 3.6-0.2 16.1-4 17-2 2.5 1.3 5.9 9.9-23 12-1.5 0.8 7.1 2.8 7 6 0.9 6.8-11.1 4.9-13 4-0.3 1.7-0.9 3.8-1.9 6-4.5 7.8-9.5 11-20.1 17"/><path class="c" d="m104 456l18 30c0 0-10.2 8.5-18 6-7.8-2.5-12-24-12-24z"/><path class="k" d="m236 422.4v81.6h-131v-81z"/><path class="l" d="m148.5 481.9c0 0 0.1 0 2.3 3.4 1-0.8 2.7-0.6 3.4 0.1 1.9 2.9-1.7 3.8-2.2 3.8 0.2 0.6 0 3.2-2.8 2.5-3.7-1-0.9-4.2-0.9-4.2l-2.3-2.8"/><path class="m" d="m152.8 485.2c0.9 0.1 1.3 0.1 1.6 1.5 0.2 1-0.8 1.8-1.6 2 0.7-1.6 1.4-2 0-3.5zm-0.6 1.5c0.3-1.3 2-0.7 1.7 0.3-0.4 0.9-1.7 0.8-1.7-0.3z"/><path class="n" d="m149 482.9l-1.5 2.2c0 0 1 1.1 2.3 2.5-1.9 1.5-2.2 3.6-0.7 4 2 0.8 2.6-0.1 2.8-1.9 0 3-2.7 1.7-3.4 1.4-2.1-0.6-0.1-3.6-0.1-3.6l-9.9-13.3"/><path class="o" d="m129.9 461.1c0 0 6.5-6.1 15.5 4.4 3.9 6.8 3.2 8.3 2.4 12.7 1.1 1.3 2.1 3.8-0.1 5.7-2.8 1.7-5-0.1-5.8-1.1-0.9-0.8-8.3 0.3-13.1-8.4-4.6-9.5 1.1-13.3 1.1-13.3z"/><path class="p" d="m131 473.4c0.3 1.1 2.2 0.8 1.8-0.4-0.4-1.1-1.9-0.4-1.8 0.4z"/><path fill-rule="evenodd" class="p" d="m147.6 477.7q0 0-0.1 0.3l-5.7 4.4c-1.8 0.2-3.9-0.2-6.7-1.6-11-7.8-7.3-16.3-7.3-16.3 7.1 21.1 19.8 13.2 19.8 13.2zm-5.8 4.7c3.8-0.3 5.3-3.4 5.7-4.4h0.1c1.7 1.8 2 3 0.4 5.4-3.2 3.2-6.3-0.9-6.3-0.9zm-3.6-5.9c0.3 0.9-1.1 1.1-1.3 0.3-0.1-0.7 1-1.2 1.3-0.3zm-1.5-3.5c0.4 1.3-1.5 1.5-1.8 0.5-0.1-0.9 1.4-1.6 1.8-0.5z"/><path class="m" d="m127.3 468.3c0 0-0.4-10.3 9.9-8.4 6.4 2.4 9.4 6.9 10.7 12.2-1.3-2.2-4.4-7.1-6.8-8.1 1 1.6-1.1 4.2-4.6 2.3-3-1.5-3.4-3.4-3.1-4 0.2-0.5-4.8 0.5-6.1 6z"/><path fill-rule="evenodd" class="q" d="m159.4 440.8c0.4 0.1 0.7 0.3 0.8 0.7 0.4 1.2 0.6 2.3 0.7 3.5 0 0.4 0.1 0.8 0.2 1.1 0.1 0.6 0.1 1.1 0.1 1.7 0.1 0.8 0.3 1.6 0.3 2.6 0.2 1.2 0.3 2.3 0.3 3.5 0 1.2 0.1 2.6 0.2 3.8 0.1 1-0.5 2.4-1.5 2.8-1.1 0.5-2.3 0.6-3.5 0.3-0.7-0.1-1.1-0.7-1.4-1.5-0.4-0.8-0.2-1.8-0.2-2.7 0-1.1-0.1-2.2 0-3.4 0-1.1 0.1-2.3 0.1-3.5q0-2.3 0-4.7c0-1 0-2.2 0-3.3 0-0.4 0.3-0.7 0.8-0.9 0.4-0.1 0.7-0.2 1-0.3 0.8 0.2 1.5 0.2 2.1 0.3zm11.7 4c-0.3 0.9-0.3 1.7-0.5 2.5 0 0.3 0 0.5 0 0.8-0.1 0.7-0.2 1.3-0.2 2 0 0.2 0.1 0.3 0 0.4-0.3 1.9 0.4 3.7 1 5.4 0.3 1.3 1 1.4 1.7 0.4 0.6-0.7 1.8-3.5 2.4-4.2 0.5-0.7 0.9-0.7 1.3-0.6 1 0.4 3.2 1.4 2.4 3.2-0.5 1.3-0.7 1.6-1.7 2.7-0.4 0.5-0.8 1-1.2 1.4-1.2 0.8-2.4 1.5-3.8 1.7-1 0-1.9 0.2-2.8 0.3-0.6 0.1-1.3 0.1-1.7-0.5q-0.1 0-0.1 0c-2.5-1.3-3.4-3.7-3.9-6.2-0.2-1.4-0.4-2.9-0.2-4.3 0.1-1.4 0.1-2.9 0.4-4.3q0.2-1.6 1.1-3c0-0.1 0.1-0.2 0.1-0.3-0.1-0.9 0.7-1.3 1.2-1.8 0.8-0.6 1.6-1.2 2.7-1.4 0.2 0 0.4-0.2 0.6-0.2 1.3-0.1 2.7-0.2 4.1-0.2 1.2 0 2.3 1 3.2 1.8 0.3 0.1 0.4 0.5 0.6 0.8 0.1 0.2 0.1 0.4 0.3 0.5 0.7 0.7 0.8 1.7 1.1 2.6 0.1 0.3 0 0.8-0.1 1.2-0.1 0.6-0.5 0.7-0.9 0.7-0.4 0-0.9 0.1-1.3 0.1-0.6 0.1-1.1-0.2-1.4-0.8-0.2-0.3-0.3-0.5-0.4-0.8-0.3-0.8-1.1-1.4-1.5-2.2-0.2-0.3-0.4-0.3-0.8-0.5-0.9 0.8-1.4 1.8-1.7 2.8zm24.4 10.6c-0.4 0.5-0.6 1.1-1 1.5-0.7 0.9-1.5 1.8-2.5 2.4-1.9 1.2-4.2 1.2-6.5 0.4-1.2-0.5-2.2-1.4-2.7-2.5-0.4-0.8-0.8-1.8-0.9-2.7-0.2-1.2-0.6-2.4-0.6-3.8 0.1-0.7 0-1.6 0.3-2.4 0.5-1.5 0.7-3.2 1.8-4.5 0.6-0.7 1.5-1.1 1.8-1.9 0.1-0.1 0.2-0.1 0.2-0.1 1.3-0.3 2.5-1 4-0.8 1.7 0.3 3.3 0.5 4.8 1.2 0.2 0.2 0.4 0.3 0.5 0.3 0.9 1 2 2.1 2.2 3.3 0.3 1.9 0.5 3.6 0.1 5.4-0.2 1-0.5 1.9-0.8 2.8-0.1 0.1-0.3 0.2-0.6 0.4 0.3 0.3 0.2 0.7-0.1 1zm-5.3-11.3c-0.2-0.3-0.4-0.3-0.6-0.1-0.7 0.7-1.4 1.3-1.7 2.4-0.1 0.5-0.3 1-0.4 1.4-0.2 1.1-0.5 2.1-0.6 3.2-0.1 1.1-0.1 2.3-0.2 3.6-0.1 0.8-0.1 1.6 0.3 2.3 0.5 1.1 0.8 1.2 1.5 0.6 0.6-0.7 1.1-1.4 1.6-2.1 0.2-0.3 0.5-0.6 0.5-1 0.1-0.8 0.4-1.4 0.5-2.2 0.3-1.7 0.3-3.3 0.1-5.2-0.2-0.9-0.5-1.9-1-2.9z"/><path class="r" d="m196.8 442.5l6-4.1c0 0-0.4-2.6 1.8-1.4 1.1 0.6 0.6 1.3 0.4 1.7 0.8-0.1 2.2 0.6 1.4 1.6-1.3 0.8-1.6 0-2.3 0.4-0.7 0.6-5.2 3.9-5.2 3.9l-2.3-1.4"/><path class="s" d="m199.1 444.4l-0.7-0.3c0 0 5.3-3.9 5.7-4.1 1 0.2 1 0.2 1.8 0 0.2-0.8-0.3-0.8-1.3-1.1 2.1 0 1.7 0.8 1.7 1.1-0.3 0.8-2 0.3-2 0.3l-5.1 3.8"/><path class="q" d="m195 443.2c0 0 1.4-1.4 1.8-0.9 0.4 0.5 0 1.4 0 1.4l0.9-0.3 0.3 1c0 0 1.6-0.1 1.6 0.4-0.1 0.5-3 3.2-3 1.5"/><path class="t" d="m197.5 446l-0.2 0.4-0.5 0.3-0.1 0.2-0.1 0.3-1-1.1 1.7-0.1"/><path class="t" d="m195.6 443.7l-0.4 0.4-1.2-0.4c0 0-0.4-1.1-0.1-1.1 0.7 0.2 1.3 0.8 1.3 0.8"/><path class="l" d="m196.1 486.4c0 0 0 0.1-2.8 5 1.6 0.7 2.4 2.9 2.1 4.3-2.6 4.1-5.8 0.3-6.2-0.3-0.6 0.5-3.9 2-4.9-1.9-1.1-5.3 4.7-3.9 4.7-3.9l2-4.6"/><path fill-rule="evenodd" class="m" d="m194.7 493.8c0.4 1.1 0.7 1.6-0.9 3-1 0.8-2.7 0-3.5-0.8 0.8 0 1.3 0 1.8 0 0.3 0.2 0.6 0.3 1 0.3 0.6-0.1 0.9-0.6 0.9-1.1q0.4-0.5 0.7-1.4zm-2.2 0.2c-1 0.5-0.9 1.5-0.4 2 0.9 0 1.4-0.2 1.9-0.8 0.1-0.7-0.5-1.5-1.5-1.2z"/><path class="n" d="m195.1 487.7l-3.6-0.5c0 0-0.7 2-1.7 4.3-3-1.3-5.8-0.3-5.4 1.7 0.3 3 1.7 3.2 4.2 2.3-3.9 1.9-3.9-2.2-4-3.4-0.5-2.9 4.5-2.3 4.5-2.3l10.2-20.7"/><path class="o" d="m210.2 450.1c0 0 11.7 4.2 4.4 22-6.1 9.2-8.4 9.3-14.3 11-1 2.3-3.5 5.1-7.2 3.5-3.9-2.3-3-6.2-2.3-7.9 0.5-1.6-5.5-10.1 2.3-21.5 8.7-11.8 17.1-7.1 17.1-7.1z"/><path class="p" d="m195.6 459.3c-1.1 1 0.3 3.2 1.6 1.9 1.2-1.2-0.6-2.6-1.6-1.9z"/><path fill-rule="evenodd" class="p" d="m200.7 482.7q0 0-0.4 0l-9.2-4.4c-1.2-2-2.1-5-2.1-9.2 2.8-18.8 15.6-19.4 15.6-19.4-21.7 22-3.9 33-3.9 33zm-9.6-4.4c2.9 4.6 7.7 4.5 9.2 4.4l0.1 0.1c-1.2 3.3-2.6 4.4-6.5 4-6-2.1-2.9-8.5-2.9-8.5zm5.2-8.2c-1 1-2.1-0.7-1.3-1.4 0.8-0.6 2.2 0.5 1.3 1.4zm3.3-4.1c-1.3 1.3-2.8-0.9-1.7-1.8 1-0.8 2.8 0.7 1.7 1.8z"/><path class="m" d="m199.6 451.4c0 0 12.6-6.9 16.7 7 1.1 9.6-2.6 16.1-8.4 21.1 2-3.1 6-10 5.7-13.7-1.2 2.4-5.8 1.3-5.7-4.1 0-4.8 2.1-6.4 3-6.5 0.8-0.1-3.6-5.6-11.3-3.8z"/><path class="u" d="m185.5 461.2v15h-38.3v-15.2z"/><path fill-rule="evenodd" class="r" d="m151.8 473.4h-1.4l-0.3-9.6h1.6q0.5 0 1 0 1.1 0.1 2.1 0.8 0.9 0.8 0.9 2 0 0.9-0.5 1.7-0.4 0.8-1.3 1.4-0.9 0.6-2.1 0.9zm-0.2-8.3v3.9q0.9-0.2 1.4-0.7 0.5-0.4 0.7-0.9 0.3-0.5 0.3-0.9 0-1.4-1.8-1.4-0.3 0-0.6 0zm8.1 8.7q-1.6 0-2.4-1.6-0.8-1.3-0.8-3.3 0-1.1 0.2-2 0.3-1.1 0.9-2 1-1.5 2.6-1.5 1.6 0 2.4 1.6 0.8 1.4 0.8 3.4 0 1-0.3 2-0.2 0.8-0.6 1.5-0.5 0.9-1.2 1.4-0.7 0.5-1.6 0.5zm0.1-1.6q0.4 0 0.7-0.3 0.4-0.3 0.6-0.7 0.2-0.4 0.4-0.9 0.1-0.5 0.2-0.9 0-0.4 0-0.8 0-1.6-0.4-2.6-0.4-1-1.2-1-0.8 0-1.3 1-0.2 0.3-0.4 0.8-0.2 0.9-0.2 1.7 0 1.6 0.4 2.7 0.4 1 1.2 1zm5.3-8.5l1.5 0.1-0.2 8.2 2.9-0.2v1.4l-4.4 0.2zm5.4 0h1.4l-0.2 8.2 3-0.1v1.3l-4.5 0.2zm8.1 10.1q-1.5 0-2.4-1.5-0.8-1.4-0.8-3.5 0-0.9 0.3-1.9 0.2-1.1 0.8-2 1-1.5 2.6-1.5 1.6 0 2.4 1.6 0.8 1.4 0.8 3.5 0 0.9-0.2 1.9-0.3 0.8-0.6 1.5-0.5 0.9-1.3 1.4-0.7 0.5-1.6 0.5zm0.1-1.7q0.4 0 0.8-0.2 0.3-0.3 0.5-0.7 0.2-0.4 0.4-0.9 0.1-0.4 0.2-0.9 0-0.4 0-0.7 0-1.7-0.4-2.7-0.4-1-1.2-1-0.8 0-1.3 0.9-0.2 0.5-0.4 0.9-0.2 0.9-0.2 1.7 0 1.6 0.4 2.7 0.4 0.9 1.2 0.9z"/><path class="q" d="m153 445.3c-0.3 2.3-6 6.2-6 6.2 0 0-2.5-7.3-2.6-8.1-0.1-0.7-2.9-1.4-4.4-2-0.6-0.6-0.2 7.4-0.2 7.4l3 6.4-2.8-1.6c0 0 0.4 6.8-0.4 7.2-0.8 0.3-2 1.2-2.8-0.3-0.7-1.4-2.7-19.5-1.8-20.5 3.8-4.5 18.7 0.6 18 5.3z"/><path class="b" d="m144.4 444.1c-0.5 1-3.3 5-4.6 4.4"/><path class="r" d="m146.4 453.1l5.3 4.9c0 0 2.5-0.9 1.8 1.5-0.4 1.2-1.1 0.9-1.6 0.7 0.2 0.8-0.1 2.3-1.3 1.8-1-1.1-0.3-1.6-0.9-2.2-0.7-0.5-4.9-4.3-4.9-4.3l0.8-2.5"/><path class="s" d="m145.1 455.7v-0.7c0 0 5 4.3 5.3 4.7 0 0.9 0 0.9 0.3 1.7 0.9 0.1 0.8-0.5 0.9-1.5 0.4 2.1-0.4 1.9-0.7 1.9-0.8-0.1-0.8-1.9-0.8-1.9l-4.8-4.2"/><path class="q" d="m146.7 451.3c0 0 1.6 2.2 1.2 2.7-0.4 0.5-1.4 0.4-1.4 0.4l0.5 0.8-0.8 0.5c0 0 0.4 1.5-0.1 1.6-0.5 0.1-2-1-3.7-2.2"/><path class="t" d="m146.4 451.3l0.4 1.2-1.2 0.8c0 0-0.5-4.2-0.3-4.3 1.6-0.8 1.9 1.8 1.9 1.8"/><path class="t" d="m144.7 442.8l6.6 4.3c0 0-7.1 4.2-4.5 6 0.5 0.4-3.3 2.3-3.3 2.3l-4.6-3.4 0.5-3c0 0 0.7 0.4 1.4-0.2 0.7-0.6 4.8-3.9 3.9-6z"/><path class="c" d="m114 485c-2.1 4.5-21.1-10.2-20-14 4.1-3.8 22.6 8.4 20 14zm0 0c-2.1 4.5-21.1-10.2-20-14 4.1-3.8 22.6 8.4 20 14z"/><path class="c" d="m119.1 475.7c-1.8 6.2-28.9-9-28.3-14 4.6-5.6 30.6 6.4 28.3 14zm0 0c-1.8 6.2-28.9-9-28.3-14 4.6-5.6 30.6 6.4 28.3 14z"/><path class="c" d="m125.8 464c-2.4 6.4-35.9-7.5-35-12.6 5.9-5.9 38.1 4.8 35 12.6zm0 0c-2.4 6.4-35.9-7.5-35-12.6 5.9-5.9 38.1 4.8 35 12.6z"/><path class="c" d="m132.7 451.5c-2 7.8-43.2-3.8-42.9-9.8 6.1-7.8 45.4 0.2 42.9 9.8zm0 0c-2 7.8-43.2-3.8-42.9-9.8 6.1-7.8 45.4 0.2 42.9 9.8z"/><path class="v" d="m122.8 452.9c0 0-8.8 0.2-14.1-1.1 4.9 1.4 9.5 4.7 11.5 6 0.1 1.2 1.2 6.9 1.2 6.9 0 0-8.6-1-14-1.7 2.5 2.7 3 3.2 7 6.2 1.5 2.2 7.7 12.9-13.9 1.9 3.1 1.7 6.4 5.4 10.3 10.6 0.7 4.3-17.1-10.7-17.1-10.7l-4.3-29.8 26.6 1.8z"/><path class="c" d="m89.9 441.5c-2.5 3.1 1.5 31.2 4.9 31.3"/><path class="c" d="m90.9 440.7l-1.1 1.3"/></svg>